<svg width="19" height="23" viewBox="0 0 19 23" fill="none" xmlns="http://www.w3.org/2000/svg">
<path fill-rule="evenodd" clip-rule="evenodd" d="M9.58589 22.7629C11.5625 21.1986 18.0402 15.572 18.0402 9.02008C18.0402 4.03843 14.0017 0 9.02008 0C4.03843 0 0 4.03843 0 9.02008C0 15.572 6.47771 21.1986 8.45428 22.7629C8.78933 23.0281 9.25084 23.0281 9.58589 22.7629ZM9.02002 12.8858C11.155 12.8858 12.8858 11.155 12.8858 9.02002C12.8858 6.88503 11.155 5.15427 9.02002 5.15427C6.88503 5.15427 5.15427 6.88503 5.15427 9.02002C5.15427 11.155 6.88503 12.8858 9.02002 12.8858Z" fill="white"/>
</svg>
